<svg xmlns="http://www.w3.org/2000/svg" viewBox="0 0 400 120" width="400" height="120"><defs><linearGradient id="goldGrad" x1="0%" y1="0%" x2="100%" y2="100%"><stop offset="0%" style="stop-color:#D4AF37"/><stop offset="50%" style="stop-color:#F4D03F"/><stop offset="100%" style="stop-color:#C59B27"/></linearGradient><linearGradient id="greenGrad" x1="0%" y1="0%" x2="100%" y2="100%"><stop offset="0%" style="stop-color:#1B8A5A"/><stop offset="100%" style="stop-color:#27AE60"/></linearGradient><linearGradient id="bgGrad" x1="0%" y1="0%" x2="100%" y2="100%"><stop offset="0%" style="stop-color:#111215"/><stop offset="100%" style="stop-color:#1a1c23"/></linearGradient></defs><rect x="0" y="0" width="400" height="120" rx="16" fill="url(#bgGrad)"/><polygon points="60,10 95,10 112,38 95,66 60,66 43,38" fill="none" stroke="url(#goldGrad)" stroke-width="2.5"/><polygon points="60,14 92,14 107,38 92,62 60,62 45,38" fill="url(#bgGrad)" stroke="url(#goldGrad)" stroke-width="1"/><path d="M55,30 Q60,22 68,28 Q76,34 80,26 Q84,18 90,24" fill="none" stroke="url(#goldGrad)" stroke-width="2" stroke-linecap="round"/><path d="M50,40 Q58,32 66,38 Q74,44 82,36 Q88,30 95,36" fill="none" stroke="url(#greenGrad)" stroke-width="2" stroke-linecap="round"/><g transform="translate(60,30)"><polyline points="12,0 12,18 6,12" fill="none" stroke="url(#goldGrad)" stroke-width="2.5" stroke-linecap="round" stroke-linejoin="round"/><polyline points="12,0 12,18 18,12" fill="none" stroke="url(#goldGrad)" stroke-width="2.5" stroke-linecap="round" stroke-linejoin="round"/><line x1="0" y1="24" x2="24" y2="24" stroke="url(#goldGrad)" stroke-width="2.5" stroke-linecap="round"/></g><polygon points="56,44 56,54 64,49" fill="url(#greenGrad)" opacity="0.9"/><circle cx="75" cy="48" r="3" fill="#C0392B" opacity="0.8"/><text x="130" y="40" font-family="Inter, sans-serif" font-size="22" font-weight="800" fill="url(#goldGrad)" letter-spacing="1">AFRIWAY</text><text x="130" y="62" font-family="Inter, sans-serif" font-size="14" font-weight="600" fill="#f5ebe0" letter-spacing="0.5">YouTube Downloader</text><text x="130" y="82" font-family="Inter, sans-serif" font-size="10" fill="#d4c4b0" letter-spacing="0.3">Proudly African · Boldly Modern</text><line x1="130" y1="92" x2="380" y2="92" stroke="url(#greenGrad)" stroke-width="1.5" opacity="0.6"/><circle cx="130" cy="92" r="2.5" fill="#C0392B"/><circle cx="380" cy="92" r="2.5" fill="#D4AF37"/></svg>